<svg id="Layer_1" data-name="Layer 1" xmlns="http://www.w3.org/2000/svg" viewBox="0 0 719.3 62.24"><defs><style>.cls-1{fill:#8ec850;}</style></defs><path class="cls-1" d="M46.23,33.32a154.74,154.74,0,0,1,2.65,28H0V44.67Zm-1.91-8.86A153.31,153.31,0,0,0,36.38.86H0V35.34L44.31,24.46ZM58,61.36H91.87V22.11l-36.81,9A165.85,165.85,0,0,1,58,61.35ZM46.19.86a165.05,165.05,0,0,1,5.59,16.36c.36,1.23.69,2.49,1,3.78.11.43.23.86.33,1.3l38.74-9.51V.85Z"/><path d="M130,14.85V26.6h15.65V39.05H130v8.82l10,.34V61.35h-34.2V48l6-.34v-33l-6-.35V.86h49.79V21.61H142.77l-1.65-6.74Zm94.42-.61-6,.35V37.24c0,21.52-2.76,25-26.19,25-23.25,0-26.19-3.37-26.19-25V14.59l-6-.35V.84h30.25v13.4l-6,.35V37.15c0,9.68.95,10.89,8,10.89s8-1.21,8-10.89V14.59l-6-.35V.84h30.25Zm30,48c-23.77,0-26.62-2.94-26.62-20.66l17.45-1.21c0,6.31,1,7.17,9.51,7.17,8.3,0,8.73-1,8.73-4.15s-.51-4.06-9.07-5.18c-24.29-3.38-25.76-5-25.76-22.13C228.63,2.85,231.48,0,254.39,0c22.73,0,25.32,2.59,25.23,18.93l-17.45,1.21c0-4.5-.78-5.45-7.78-5.45-7.61,0-8.3.87-8.3,3.29,0,3,.61,3.89,13,5.62,20.4,2.85,21.87,4.58,21.87,20,0,15.59-2.89,18.62-26.57,18.62Zm57.53,0c-23.78,0-26.63-2.94-26.63-20.66l17.46-1.21c0,6.31.95,7.17,9.51,7.17,8.3,0,8.73-1,8.73-4.15s-.52-4.06-9.07-5.18c-24.29-3.38-25.76-5-25.76-22.13C286.16,2.85,289,0,311.92,0c22.73,0,25.32,2.59,25.24,18.93L319.7,20.14c0-4.5-.78-5.45-7.78-5.45-7.61,0-8.3.87-8.3,3.29,0,3,.6,3.89,13,5.62,20.4,2.85,21.87,4.58,21.87,20,0,15.59-2.87,18.62-26.57,18.62Zm88-17.12c0,13.75-2.6,16.25-27.32,16.25H343.38V48l6.05-.34v-33l-6.05-.35V.88h26.45C395,.88,397.67,2.36,397.67,17c0,7.87-1.13,11.58-9.42,13.31,10.28,1.52,11.67,5.49,11.67,14.83Zm-32.3-31V25.31h4.49c6.83,0,7.53-.61,7.53-5.28,0-5.18-.7-5.87-7.53-5.87ZM374,48c6.57,0,7.26-.52,7.26-5.88,0-4.75-.69-5.44-7.26-5.44h-6.39V48ZM469.08,48v13.4h-30.8V48.91l6-.44-1.56-5.36h-15.1l-1.55,5.28,6,.52V61.35h-28.8V48l6.4-.34L420.9,14.67,414,14.24V.84h32.84l15.79,46.77ZM439.75,32.46l-1.3-4.41a98.82,98.82,0,0,1-2.94-13.4h-.35a88.87,88.87,0,0,1-3,13.4l-1.3,4.41Zm84.07,3.89v25H472.39V48l6.05-.34v-33l-6.05-.35V.86h30.23v13.4l-6,.35V48.15h12.27l.52-11.76Zm54.92,0v25H527.31V48l6-.34v-33l-6-.35V.86h30.25v13.4l-6,.35V48.15h12.28l.52-11.76Zm54-35.53C660.14.82,663,3.59,663,31.08s-3,30.25-30.26,30.25H605.28V47.93l6-.34v-33l-6-.35V.84Zm-.86,46.51c12.1,0,12.62-.78,12.62-16.51,0-15.22-.69-16-12.62-16h-2.42v32.5Zm35,14V47.93l6-.34v-33l-6-.35V.84H718.4V21.59h-13l-1.12-6.74H691.13V25.39H704V37H691.13V47.46h14l1.12-6.74h13V61.38Zm-65.7-8c0,7.7-1.21,8.91-9.07,8.91s-9.25-1.21-9.25-8.91,1.21-8.81,9.25-8.81,9.12,1.19,9.12,8.79Z"/></svg>